HIERARCHY
ROOT Hips
{
	OFFSET 0.00000 0.00000 0.00000
	CHANNELS 6 Xposition Yposition Zposition Zrotation Yrotation Xrotation 
	JOINT LHipJoint
	{
		OFFSET 0 0 0
		CHANNELS 3 Zrotation Yrotation Xrotation
		JOINT LeftUpLeg
		{
			OFFSET 1.59801 -1.77853 0.57028
			CHANNELS 3 Zrotation Yrotation Xrotation
			JOINT LeftLeg
			{
				OFFSET 2.39439 -6.57854 0.00000
				CHANNELS 3 Zrotation Yrotation Xrotation
				JOINT LeftFoot
				{
					OFFSET 2.69334 -7.39989 0.00000
					CHANNELS 3 Zrotation Yrotation Xrotation
					JOINT LeftToeBase
					{
						OFFSET 0.09553 -0.26245 1.73747
						CHANNELS 3 Zrotation Yrotation Xrotation
						End Site
						{
							OFFSET 0.00000 -0.00000 0.89391
						}
					}
				}
			}
		}
	}
	JOINT RHipJoint
	{
		OFFSET 0 0 0
		CHANNELS 3 Zrotation Yrotation Xrotation
		JOINT RightUpLeg
		{
			OFFSET -1.54704 -1.77852 0.57028
			CHANNELS 3 Zrotation Yrotation Xrotation
			JOINT RightLeg
			{
				OFFSET -2.40286 -6.60180 0.00000
				CHANNELS 3 Zrotation Yrotation Xrotation
				JOINT RightFoot
				{
					OFFSET -2.63873 -7.24984 0.00000
					CHANNELS 3 Zrotation Yrotation Xrotation
					JOINT RightToeBase
					{
						OFFSET -0.15631 -0.42945 1.84436
						CHANNELS 3 Zrotation Yrotation Xrotation
						End Site
						{
							OFFSET -0.00000 -0.00000 0.95734
						}
					}
				}
			}
		}
	}
	JOINT LowerBack
	{
		OFFSET 0 0 0
		CHANNELS 3 Zrotation Yrotation Xrotation
		JOINT Spine
		{
			OFFSET -0.00436 1.89866 -0.04018
			CHANNELS 3 Zrotation Yrotation Xrotation
			JOINT Spine1
			{
				OFFSET 0.02031 1.88273 0.09634
				CHANNELS 3 Zrotation Yrotation Xrotation
				JOINT Neck
				{
					OFFSET 0 0 0
					CHANNELS 3 Zrotation Yrotation Xrotation
					JOINT Neck1
					{
						OFFSET -0.13105 1.89371 0.23083
						CHANNELS 3 Zrotation Yrotation Xrotation
						JOINT Head
						{
							OFFSET 0.17062 1.83990 -0.54062
							CHANNELS 3 Zrotation Yrotation Xrotation
							End Site
							{
								OFFSET 0.04576 1.94782 -0.21839
							}
						}
					}
				}
				JOINT LeftShoulder
				{
					OFFSET 0 0 0
					CHANNELS 3 Zrotation Yrotation Xrotation
					JOINT LeftArm
					{
						OFFSET 3.12424 1.09204 0.22226
						CHANNELS 3 Zrotation Yrotation Xrotation
						JOINT LeftForeArm
						{
							OFFSET 5.29277 -0.00000 0.00000
							CHANNELS 3 Zrotation Yrotation Xrotation
							JOINT LeftHand
							{
								OFFSET 2.85226 -0.00000 0.00000
								CHANNELS 3 Zrotation Yrotation Xrotation
								JOINT LeftFingerBase
								{
									OFFSET 0 0 0
									CHANNELS 3 Zrotation Yrotation Xrotation
									JOINT LeftHandIndex1
									{
										OFFSET 0.60210 -0.00000 0.00000
										CHANNELS 3 Zrotation Yrotation Xrotation
										End Site
										{
											OFFSET 0.48543 -0.00000 0.00000
										}
									}
								}
								JOINT LThumb
								{
									OFFSET 0 0 0
									CHANNELS 3 Zrotation Yrotation Xrotation
									End Site
									{
										OFFSET 0.49284 -0.00000 0.49284
									}
								}
							}
						}
					}
				}
				JOINT RightShoulder
				{
					OFFSET 0 0 0
					CHANNELS 3 Zrotation Yrotation Xrotation
					JOINT RightArm
					{
						OFFSET -2.91709 1.01504 0.30199
						CHANNELS 3 Zrotation Yrotation Xrotation
						JOINT RightForeArm
						{
							OFFSET -5.13304 -0.00000 0.00000
							CHANNELS 3 Zrotation Yrotation Xrotation
							JOINT RightHand
							{
								OFFSET -2.74305 -0.00000 0.00000
								CHANNELS 3 Zrotation Yrotation Xrotation
								JOINT RightFingerBase
								{
									OFFSET 0 0 0
									CHANNELS 3 Zrotation Yrotation Xrotation
									JOINT RightHandIndex1
									{
										OFFSET -0.76798 -0.00000 0.00000
										CHANNELS 3 Zrotation Yrotation Xrotation
										End Site
										{
											OFFSET -0.61916 -0.00000 0.00000
										}
									}
								}
								JOINT RThumb
								{
									OFFSET 0 0 0
									CHANNELS 3 Zrotation Yrotation Xrotation
									End Site
									{
										OFFSET -0.62862 -0.00000 0.62862
									}
								}
							}
						}
					}
				}
			}
		}
	}
}
MOTION
Frames: 15
Frame Time: .0083333
1.4330 16.8390 0.0264 6.6895 -13.1864 -6.2778 0.0000 0.0000 0.0000 -31.1719 2.6361 0.3195 1.7115 8.2373 23.4370 1.3826 -1.8200 -21.7132 0.1058 -2.0974 -5.7749 0.0000 0.0000 0.0000 7.5520 13.7996 -1.5506 -3.0666 -10.8021 31.6152 -1.6101 3.6946 -23.0846 -1.3685 7.4038 -20.9173 3.0284 -4.1689 -2.5432 8.9631 -5.3041 -6.0198 7.7857 -2.5894 -4.2731 -9.4873 -6.1989 -18.5740 -3.8791 -5.1477 17.1732 -0.4628 -3.5061 8.6166 -0.0000 0.0000 0.0000 39.6484 -51.0875 -76.4316 7.0247 -11.9599 -0.7367 -0.0000 -0.0000 45.8557 -25.3266 18.3978 -8.4954 -7.1250 0.0000 -0.0000 -46.2904 43.1832 2.7351 -0.0000 0.0000 0.0000 60.4498 35.4301 55.9874 -128.8964 53.4310 -92.9420 0.0000 -0.0000 -13.0791 1.0721 15.7712 0.2914 7.1250 -0.0000 -0.0000 19.0966 -14.7555 14.4423
1.4829 16.8205 0.0213 7.0993 -14.5269 -6.2310 0.0000 0.0000 0.0000 -31.6434 3.5597 -0.4399 1.7204 8.2576 23.4993 1.3957 -1.8367 -21.8143 0.0816 -1.8423 -5.0702 0.0000 0.0000 0.0000 6.9060 14.8960 -2.4738 -3.2376 -11.0701 32.5167 -1.6349 4.2976 -23.1714 -1.3446 7.3415 -20.7310 3.7480 -4.6148 -2.3024 9.2435 -5.8802 -5.9335 7.7030 -2.9044 -4.3025 -8.4285 -5.3728 -18.9368 -4.8471 -4.1086 16.2787 -0.8050 -3.0222 8.3001 -0.0000 0.0000 0.0000 37.6394 -50.1775 -78.8972 6.6922 -11.4116 -0.6694 -0.0000 -0.0000 49.6151 -24.6146 19.6409 -8.7544 -7.1250 0.0000 -0.0000 -46.6260 44.2619 1.1129 -0.0000 0.0000 0.0000 62.0162 35.1045 56.6254 -130.2980 52.8746 -94.0637 0.0000 -0.0000 -13.5130 1.1967 15.8467 0.3268 7.1250 -0.0000 -0.0000 19.1695 -14.6873 14.5343
1.5287 16.7972 0.0196 7.8889 -15.7347 -6.2606 0.0000 0.0000 0.0000 -32.5072 4.3954 -1.2292 1.7445 8.3123 23.6669 1.4206 -2.0457 -21.9625 0.0490 -1.4282 -3.9279 0.0000 0.0000 0.0000 5.8024 15.8387 -3.4320 -3.4008 -11.3173 33.3575 -1.6586 5.0136 -23.2494 -1.3791 7.4311 -20.9990 4.0267 -5.0336 -2.0965 9.3803 -6.4250 -5.8785 7.7144 -3.1881 -4.3220 -7.4132 -4.6210 -19.1710 -5.6657 -3.2304 15.3058 -1.1093 -2.5958 7.9635 0.0000 -0.0000 0.0000 35.7943 -49.2896 -81.5591 6.5161 -11.1202 -0.6350 -0.0000 -0.0000 52.8986 -23.6136 20.6740 -8.7740 -7.1250 0.0000 -0.0000 -46.6275 45.2122 -0.3170 0.0000 -0.0000 0.0000 63.2509 34.5355 56.9076 -131.7144 52.2802 -95.1886 0.0000 -0.0000 -13.7401 1.2022 15.7933 0.3272 7.1250 -0.0000 -0.0000 19.1778 -14.7379 14.5193
1.5701 16.7721 0.0168 8.6542 -16.9124 -6.2856 0.0000 0.0000 0.0000 -33.3498 5.1171 -2.0710 1.7922 8.4190 23.9942 1.4633 -2.2493 -22.2524 0.0255 -1.0302 -2.8319 0.0000 0.0000 0.0000 4.7622 16.8179 -4.3485 -3.5448 -11.5287 34.0843 -1.6746 5.4775 -23.3139 -1.4821 7.6918 -21.7818 4.3501 -5.3924 -1.8692 9.4211 -6.8857 -5.8262 7.6033 -3.4317 -4.3841 -6.3861 -3.9125 -19.3063 -6.3010 -2.4814 14.2299 -1.3690 -2.2047 7.5962 -0.0000 -0.0000 0.0000 34.1269 -48.3536 -84.3669 6.4817 -11.0632 -0.6284 -0.0000 -0.0000 56.3236 -22.4082 21.2002 -8.4810 -7.1250 0.0000 -0.0000 -46.1260 45.7980 -1.1649 -0.0000 -0.0000 0.0000 64.4029 33.7223 56.8956 -133.2913 51.5786 -96.4300 0.0000 -0.0000 -13.5849 1.0774 15.7711 0.2929 7.1250 -0.0000 -0.0000 19.1000 -14.7558 14.4451
1.6064 16.7506 0.0173 8.7646 -18.3409 -6.2472 0.0000 0.0000 0.0000 -33.4763 5.9765 -2.9020 1.8507 8.5480 24.3912 1.5108 -2.2903 -22.6134 0.0209 -0.9336 -2.5662 0.0000 0.0000 0.0000 4.5619 18.0516 -5.0622 -3.6822 -11.7250 34.7660 -1.6922 5.9006 -23.4010 -1.4561 7.6270 -21.5869 5.2538 -5.6471 -1.5295 9.6132 -7.1919 -5.6565 7.3451 -3.6174 -4.4605 -5.6743 -3.3436 -19.3891 -6.5544 -1.9251 13.0599 -1.4766 -1.8807 7.2099 -0.0000 0.0000 0.0000 32.4450 -47.3964 -87.2911 6.6556 -11.3511 -0.6622 -0.0000 -0.0000 60.0357 -21.6904 21.2173 -8.1914 -7.1250 0.0000 -0.0000 -45.6150 45.9174 -1.3145 -0.0000 0.0000 0.0000 65.4404 32.6253 56.7897 -134.7945 50.8688 -97.6020 0.0000 -0.0000 -12.9841 0.7340 16.0537 0.2030 7.1250 -0.0000 -0.0000 18.8556 -14.4791 14.3559
1.6368 16.7341 0.0228 8.5131 -19.9350 -6.1888 0.0000 0.0000 0.0000 -33.2138 6.8951 -3.7142 1.9218 8.7013 24.8654 1.5613 -2.1199 -23.0413 0.0354 -1.2140 -3.3379 0.0000 0.0000 0.0000 4.8527 19.4477 -5.6132 -3.8195 -11.9163 35.4365 -1.7018 6.2446 -23.4421 -1.4389 7.5838 -21.4570 6.4178 -5.8496 -1.1776 9.8787 -7.4256 -5.3898 7.0243 -3.7744 -4.4800 -5.0206 -2.8319 -19.2294 -6.7691 -1.4770 11.7130 -1.5711 -1.5992 6.7347 -0.0000 0.0000 0.0000 30.7276 -46.3890 -90.2632 6.9469 -11.8318 -0.7207 -0.0000 -0.0000 63.9571 -21.3939 20.9059 -7.9582 -7.1250 0.0000 -0.0000 -45.1872 45.7189 -1.0168 -0.0000 0.0000 0.0000 66.3371 31.3622 56.5741 -136.2496 50.1414 -98.7248 0.0000 -0.0000 -12.3711 0.5216 16.2967 0.1464 7.1250 -0.0000 -0.0000 18.6995 -14.2428 14.3226
1.6626 16.7087 0.0285 8.8169 -21.3702 -6.1884 0.0000 0.0000 0.0000 -33.5587 7.5453 -4.5669 1.9949 8.8554 25.3441 1.6247 -2.0683 -23.5318 0.0298 -1.1149 -3.0649 0.0000 0.0000 0.0000 4.4478 20.6780 -6.3707 -3.9674 -12.1170 36.1470 -1.7149 6.7045 -23.5052 -1.5191 7.7830 -22.0568 6.9669 -6.0485 -0.9913 10.0357 -7.6746 -5.2381 6.9140 -3.9176 -4.4628 -4.4069 -2.3913 -18.7318 -7.1297 -1.1351 10.2276 -1.7147 -1.3756 6.1684 0.0000 -0.0000 0.0000 28.9212 -45.4009 -93.2475 7.2234 -12.2864 -0.7785 -0.0000 -0.0000 67.9641 -21.4674 20.4093 -7.8086 -7.1250 0.0000 -0.0000 -44.9102 45.3206 -0.4507 0.0000 -0.0000 0.0000 67.0410 29.8925 56.1954 -137.6652 49.3939 -99.8057 0.0000 -0.0000 -12.1221 0.4806 16.2721 0.1347 7.1250 -0.0000 -0.0000 18.6753 -14.2648 14.2925
1.6922 16.6768 0.0307 9.5631 -22.6832 -6.2294 0.0000 0.0000 0.0000 -34.3949 8.0554 -5.5354 2.0661 9.0024 25.8029 1.6805 -1.8401 -24.0015 0.0379 -1.2567 -3.4554 0.0000 0.0000 0.0000 3.4348 21.6893 -7.4135 -4.1267 -12.3271 36.8991 -1.7309 7.3684 -23.5877 -1.5558 7.8721 -22.3262 7.1575 -6.2114 -0.9274 10.0409 -7.8953 -5.1306 6.8207 -4.0358 -4.3968 -3.7673 -2.0254 -18.2626 -7.5066 -0.8961 8.7707 -1.8832 -1.2046 5.6241 -0.0000 0.0000 0.0000 27.3881 -44.4198 -96.5040 7.4191 -12.6069 -0.8207 -0.0000 -0.0000 72.0836 -21.5607 19.4497 -7.4955 -7.1250 0.0000 -0.0000 -44.3541 44.5535 0.6197 -0.0000 0.0000 0.0000 67.6271 28.2925 55.6632 -139.0426 48.6270 -100.8454 0.0000 -0.0000 -12.0468 0.4292 16.3768 0.1210 7.1250 -0.0000 -0.0000 18.6339 -14.1641 14.2994
1.7216 16.6490 0.0344 10.2463 -23.8175 -6.3658 0.0000 0.0000 0.0000 -35.1824 8.4376 -6.2668 2.1282 9.1281 26.1968 1.7116 -1.3239 -24.3655 0.0619 -1.6060 -4.4179 0.0000 0.0000 0.0000 2.5398 22.5274 -8.3457 -4.2957 -12.5438 37.6841 -1.7547 7.8735 -23.7412 -1.5624 7.8880 -22.3743 7.3030 -6.3673 -0.7268 10.0740 -8.0875 -5.0281 6.8013 -4.1368 -4.4066 -3.4943 -1.7636 -18.0257 -7.5426 -0.7114 7.6317 -1.9011 -1.0631 5.2261 0.0000 0.0000 0.0000 26.0773 -43.6370 -100.0701 7.5296 -12.7875 -0.8449 -0.0000 -0.0000 75.9932 -21.4402 18.7377 -7.1900 -7.1250 0.0000 -0.0000 -43.8181 44.0072 1.3580 0.0000 0.0000 0.0000 67.9398 26.6495 54.9749 -140.2092 47.9455 -101.7162 0.0000 -0.0000 -12.0580 0.1573 16.6217 0.0450 7.1250 -0.0000 -0.0000 18.4408 -13.9232 14.2337
1.7468 16.6236 0.0432 10.5912 -24.8667 -6.5241 0.0000 0.0000 0.0000 -35.5878 8.9345 -6.8476 2.1928 9.2565 26.6012 1.7258 -0.6007 -24.6783 0.1510 -2.5040 -6.9008 0.0000 0.0000 0.0000 2.1199 23.3394 -8.9904 -4.4524 -12.7392 38.3998 -1.7791 8.2099 -23.9057 -1.5612 7.8851 -22.3655 7.6552 -6.4826 -0.4175 10.2031 -8.1993 -4.9547 6.7946 -4.2032 -4.5317 -3.6818 -1.6893 -17.5675 -7.2645 -0.7153 6.5559 -1.7641 -1.0036 4.8133 -0.0000 -0.0000 0.0000 24.7337 -43.1772 -103.7182 7.6577 -12.9965 -0.8735 -0.0000 -0.0000 79.7567 -21.6238 18.2927 -7.0924 -7.1250 0.0000 -0.0000 -43.6737 43.6278 1.8731 -0.0000 -0.0000 0.0000 68.1165 25.1037 54.1110 -141.2115 47.3355 -102.4569 0.0000 -0.0000 -12.6032 0.0163 16.3851 0.0046 7.1250 -0.0000 -0.0000 18.3695 -14.1431 14.0813
1.7687 16.5982 0.0543 10.9513 -25.9910 -6.6973 0.0000 0.0000 0.0000 -35.9885 9.4601 -7.4548 2.2551 9.3783 26.9861 1.7667 -0.3016 -25.0664 0.1637 -2.6067 -7.1855 0.0000 0.0000 0.0000 1.6813 24.2214 -9.5878 -4.5873 -12.9034 39.0080 -1.7904 8.6922 -23.9833 -1.5256 7.7987 -22.1044 8.0892 -6.5008 -0.2112 10.2205 -8.1995 -4.8228 6.6001 -4.2178 -4.5706 -3.8940 -1.6782 -17.2576 -6.8276 -0.7813 5.7376 -1.5860 -0.9766 4.5056 -0.0000 0.0000 0.0000 23.7572 -42.9193 -106.1202 7.7202 -13.0984 -0.8876 -0.0000 -0.0000 81.8961 -21.8181 18.6568 -7.2980 -7.1250 0.0000 -0.0000 -44.0375 43.8902 1.5315 -0.0000 0.0000 0.0000 68.4007 23.8805 53.0864 -141.9828 46.8503 -103.0219 0.0000 -0.0000 -13.7093 -0.1992 16.3189 -0.0560 7.1250 -0.0000 -0.0000 18.2367 -14.1989 13.9449
1.7890 16.5732 0.0633 11.2812 -27.1293 -7.0282 0.0000 0.0000 0.0000 -36.3339 10.0885 -7.8650 2.3086 9.4812 27.3126 1.8281 -0.1246 -25.5599 0.1456 -2.4587 -6.7750 0.0000 0.0000 0.0000 1.3363 24.9758 -10.0104 -4.7019 -13.0401 39.5187 -1.7882 9.2980 -23.9807 -1.4953 7.7245 -21.8803 8.5180 -6.5582 0.1336 10.2126 -8.2410 -4.5989 6.3933 -4.2512 -4.5910 -4.0828 -1.5843 -17.1699 -6.3543 -0.7087 5.1516 -1.3950 -0.8921 4.3089 -0.0000 0.0000 0.0000 22.7538 -42.6051 -108.2384 7.7915 -13.2144 -0.9039 -0.0000 -0.0000 83.5562 -21.5337 19.3363 -7.4437 -7.1250 0.0000 -0.0000 -44.2622 44.4679 0.7366 -0.0000 0.0000 0.0000 68.8242 23.1489 52.4118 -142.4643 46.5402 -103.3723 0.0000 -0.0000 -14.9472 -0.7958 16.3481 -0.2240 7.1250 -0.0000 -0.0000 17.8519 -14.1504 13.6375
1.8042 16.5517 0.0733 11.6068 -27.9920 -7.4373 0.0000 0.0000 0.0000 -36.6555 10.5783 -8.0013 2.3421 9.5450 27.5157 1.8497 0.5309 -25.9317 0.2176 -3.0029 -8.2867 0.0000 0.0000 0.0000 1.0512 25.4443 -10.2409 -4.8028 -13.1583 39.9638 -1.8036 9.7957 -24.1042 -1.5617 7.8863 -22.3691 8.8528 -6.6940 0.4139 10.1718 -8.3929 -4.4066 6.2016 -4.3357 -4.5957 -4.1518 -1.5079 -16.9513 -6.0368 -0.6695 4.6708 -1.2749 -0.8340 4.1243 -0.0000 -0.0000 0.0000 21.7940 -42.3200 -109.9036 7.8931 -13.3794 -0.9272 -0.0000 -0.0000 84.9341 -21.4704 19.7382 -7.5664 -7.1250 0.0000 -0.0000 -44.4742 44.7936 0.2870 -0.0000 -0.0000 0.0000 69.2838 22.7006 51.7739 -142.9079 46.2495 -103.6935 0.0000 -0.0000 -15.6529 -0.9619 16.2035 -0.2684 7.1250 -0.0000 -0.0000 17.7559 -14.2820 13.5037
1.8165 16.5364 0.0866 11.9812 -28.6240 -7.7898 0.0000 0.0000 0.0000 -37.0343 10.8718 -8.0561 2.3605 9.5798 27.6265 1.8604 1.0471 -26.1916 0.2726 -3.3585 -9.2786 0.0000 0.0000 0.0000 0.6665 25.6754 -10.4951 -4.8852 -13.2533 40.3243 -1.8103 10.3911 -24.1820 -1.5694 7.9049 -22.4255 8.7991 -6.8204 0.6683 10.3043 -8.5294 -4.3768 6.4142 -4.4010 -4.6754 -4.2082 -1.4619 -16.6498 -6.0830 -0.6351 4.3903 -1.2718 -0.8080 3.9907 0.0000 -0.0000 0.0000 20.4272 -42.2428 -110.3716 8.0714 -13.6685 -0.9689 -0.0000 -0.0000 85.7184 -22.0540 20.0645 -7.9128 -7.1250 0.0000 -0.0000 -45.1079 44.9660 0.0483 0.0000 -0.0000 0.0000 69.2808 22.4158 50.9471 -143.2671 46.0106 -103.9524 0.0000 -0.0000 -15.3604 -1.1611 16.2794 -0.3255 7.1250 -0.0000 -0.0000 17.6221 -14.2024 13.4225
1.8283 16.5221 0.0994 12.4571 -29.4363 -8.1321 0.0000 0.0000 0.0000 -37.5168 11.2176 -8.2254 2.3691 9.5959 27.6779 1.8732 1.3302 -26.3861 0.2622 -3.2940 -9.0983 0.0000 0.0000 0.0000 0.1227 25.9168 -10.9275 -4.9482 -13.3253 40.5985 -1.7940 11.0153 -24.1217 -1.5915 7.9576 -22.5854 8.2488 -6.8704 1.2041 10.7450 -8.5212 -4.5367 7.2807 -4.3786 -5.0007 -4.5322 -1.3928 -16.2981 -6.4223 -0.4873 4.2925 -1.3096 -0.7564 3.9100 -0.0000 0.0000 0.0000 18.1421 -42.0900 -108.9233 8.2408 -13.9424 -1.0094 -0.0000 -0.0000 85.2335 -22.4860 20.4661 -8.2353 -7.1250 0.0000 -0.0000 -45.6846 45.2168 -0.3134 -0.0000 0.0000 0.0000 68.6701 22.3219 50.5609 -143.5666 45.8090 -104.1675 0.0000 -0.0000 -14.5631 -2.2511 16.2051 -0.6285 7.1250 -0.0000 -0.0000 16.9237 -14.2302 12.8271
